# xmcd
#
# Track frame offsets: 
#        150
#        10320
#        24432
#        34700
#        51295
#        62360
#        83055
#        93682
#        104920
#        115315
#        135832
#        150332
#        168042
#        185075
#
# Disc length: 2643 seconds
#
# Revision: 0
# Processed by: cddbd v1.5.2PL0 Copyright (c) Steve Scherf et al.
# Submitted via: ExactAudioCopy v0.99pb3
#
DISCID=aa0a510e
DTITLE=Northern Pacific - Lone Pine
DYEAR=1900
DGENRE=
TTITLE0=Green Eyed Girl
TTITLE1=Our Last Goodbye Today
TTITLE2=Scat Cat
TTITLE3=Lone Pine
TTITLE4=I'm Afraid To Love You
TTITLE5=White Dove
TTITLE6=This Is The Girl I Love
TTITLE7=Elk Grove
TTITLE8=Cold Sheets Of Rain
TTITLE9=House Of Broken Dreams
TTITLE10=Carolina Calling Me
TTITLE11=Cora Is Gone
TTITLE12=Doing My Time
TTITLE13=Cluck Ol' Hen - Clinch Mtn. Backstep
EXTD=
EXTT0=
EXTT1=
EXTT2=
EXTT3=
EXTT4=
EXTT5=
EXTT6=
EXTT7=
EXTT8=
EXTT9=
EXTT10=
EXTT11=
EXTT12=
EXTT13=
PLAYORDER=
